<?xml version="1.0" encoding="UTF-8" standalone="no"?>
<svg width="306px" height="40px" viewBox="0 0 306 40" version="1.1" xmlns="http://www.w3.org/2000/svg" xmlns:xlink="http://www.w3.org/1999/xlink" xmlns:sketch="http://www.bohemiancoding.com/sketch/ns">
    <title>spree-logo</title>
    <description>Created with Sketch (http://www.bohemiancoding.com/sketch)</description>
    <defs></defs>
    <g id="Page-1" stroke="none" stroke-width="1" fill="none" fill-rule="evenodd" sketch:type="MSPage">
        <g id="Slogan" sketch:type="MSLayerGroup" transform="translate(96.000000, 31.000000)" fill="#FFFFFF">
            <path d="M0.398,1.002 L3.212,1.002 C4.63,1.002 5.639,1.733 5.639,3.03 C5.639,3.761 5.283,4.392 4.686,4.713 L4.686,4.736 C5.549,4.989 5.958,5.787 5.958,6.585 C5.958,8.158 4.695,8.867 3.245,8.867 L0.398,8.867 L0.398,1.002 L0.398,1.002 L0.398,1.002 L0.398,1.002 Z M3.212,4.215 C3.832,4.215 4.187,3.772 4.187,3.207 C4.187,2.642 3.854,2.232 3.19,2.232 L1.827,2.232 L1.827,4.215 L3.212,4.215 L3.212,4.215 L3.212,4.215 L3.212,4.215 Z M3.356,7.637 C4.087,7.637 4.497,7.161 4.497,6.496 C4.497,5.842 4.076,5.366 3.356,5.366 L1.827,5.366 L1.827,7.637 L3.356,7.637 L3.356,7.637 Z M3.356,7.637" id="Fill-1" sketch:type="MSShapeGroup"></path>
            <path d="M8.506,1.003 L8.506,8.867 L13.391,8.867 L13.391,7.637 L9.934,7.637 L9.934,5.522 L12.582,5.522 L12.582,4.292 L9.934,4.292 L9.934,2.231 L13.212,2.231 L13.212,1.003 L8.506,1.003" id="Fill-2" sketch:type="MSShapeGroup"></path>
            <path d="M20.978,1.003 L20.978,4.337 L17.378,4.337 L17.378,1.003 L15.949,1.003 L15.949,8.867 L17.378,8.867 L17.378,5.565 L20.978,5.565 L20.978,8.867 L22.407,8.867 L22.407,1.003 L20.978,1.003" id="Fill-3" sketch:type="MSShapeGroup"></path>
            <path d="M25.352,1.003 L26.781,1.003 L26.781,8.867 L25.352,8.867 L25.352,8.867 L25.352,1.003 L25.352,1.003 Z M25.352,1.003" id="Fill-4" sketch:type="MSShapeGroup"></path>
            <path d="M29.825,1.002 L31.254,1.002 L34.233,5.545 C34.533,5.998 34.887,6.762 34.887,6.762 L34.909,6.762 C34.909,6.762 34.831,6.009 34.831,5.545 L34.831,1.002 L36.25,1.002 L36.25,8.867 L34.831,8.867 L31.851,4.337 C31.554,3.883 31.199,3.118 31.199,3.118 L31.177,3.118 C31.177,3.118 31.254,3.871 31.254,4.337 L31.254,8.867 L29.825,8.867 L29.825,1.002" id="Fill-5" sketch:type="MSShapeGroup"></path>
            <path d="M39.31,1.002 L41.991,1.002 C44.416,1.002 46.001,2.442 46.001,4.924 C46.001,7.405 44.416,8.867 41.991,8.867 L39.31,8.867 L39.31,1.002 L39.31,1.002 L39.31,1.002 L39.31,1.002 Z M41.914,7.637 C43.509,7.637 44.527,6.696 44.527,4.924 C44.527,3.174 43.487,2.232 41.914,2.232 L40.739,2.232 L40.739,7.637 L41.914,7.637 L41.914,7.637 Z M41.914,7.637" id="Fill-6" sketch:type="MSShapeGroup"></path>
            <path d="M50.785,1.003 L50.785,2.231 L53.365,2.231 L53.365,8.867 L54.795,8.867 L54.795,2.231 L57.377,2.231 L57.377,1.003 L50.785,1.003" id="Fill-7" sketch:type="MSShapeGroup"></path>
            <path d="M64.41,1.003 L64.41,4.337 L60.809,4.337 L60.809,1.003 L59.381,1.003 L59.381,8.867 L60.809,8.867 L60.809,5.565 L64.41,5.565 L64.41,8.867 L65.837,8.867 L65.837,1.003 L64.41,1.003" id="Fill-8" sketch:type="MSShapeGroup"></path>
            <path d="M68.949,1.003 L68.949,8.867 L73.834,8.867 L73.834,7.637 L70.378,7.637 L70.378,5.522 L73.025,5.522 L73.025,4.292 L70.378,4.292 L70.378,2.231 L73.657,2.231 L73.657,1.003 L68.949,1.003" id="Fill-9" sketch:type="MSShapeGroup"></path>
            <path d="M80.225,1.002 L83.038,1.002 C84.456,1.002 85.465,1.733 85.465,3.03 C85.465,3.761 85.11,4.392 84.512,4.713 L84.512,4.736 C85.376,4.989 85.786,5.787 85.786,6.585 C85.786,8.158 84.523,8.867 83.071,8.867 L80.225,8.867 L80.225,1.002 L80.225,1.002 L80.225,1.002 L80.225,1.002 Z M83.038,4.215 C83.659,4.215 84.013,3.772 84.013,3.207 C84.013,2.642 83.681,2.232 83.016,2.232 L81.653,2.232 L81.653,4.215 L83.038,4.215 L83.038,4.215 L83.038,4.215 L83.038,4.215 Z M83.182,7.637 C83.913,7.637 84.323,7.161 84.323,6.496 C84.323,5.842 83.902,5.366 83.182,5.366 L81.653,5.366 L81.653,7.637 L83.182,7.637 L83.182,7.637 Z M83.182,7.637" id="Fill-10" sketch:type="MSShapeGroup"></path>
            <path d="M88.277,1.003 L88.277,8.867 L93.162,8.867 L93.162,7.637 L89.706,7.637 L89.706,5.522 L92.353,5.522 L92.353,4.292 L89.706,4.292 L89.706,2.231 L92.985,2.231 L92.985,1.003 L88.277,1.003" id="Fill-11" sketch:type="MSShapeGroup"></path>
            <path d="M95.971,6.851 C95.971,6.851 96.824,7.682 97.932,7.682 C98.531,7.682 99.074,7.372 99.074,6.729 C99.074,5.322 95.363,5.567 95.363,3.151 C95.363,1.844 96.492,0.869 97.998,0.869 C99.548,0.869 100.346,1.711 100.346,1.711 L99.727,2.874 C99.727,2.874 98.974,2.187 97.988,2.187 C97.323,2.187 96.802,2.576 96.802,3.129 C96.802,4.525 100.503,4.182 100.503,6.696 C100.503,7.948 99.548,8.999 97.91,8.999 C96.159,8.999 95.197,7.926 95.197,7.926 L95.971,6.851" id="Fill-12" sketch:type="MSShapeGroup"></path>
            <path d="M102.196,1.003 L102.196,2.231 L104.778,2.231 L104.778,8.867 L106.206,8.867 L106.206,2.231 L108.788,2.231 L108.788,1.003 L102.196,1.003" id="Fill-13" sketch:type="MSShapeGroup"></path>
            <path d="M113.693,6.851 C113.693,6.851 114.546,7.682 115.653,7.682 C116.252,7.682 116.795,7.372 116.795,6.729 C116.795,5.322 113.084,5.567 113.084,3.151 C113.084,1.844 114.214,0.869 115.72,0.869 C117.271,0.869 118.069,1.711 118.069,1.711 L117.448,2.874 C117.448,2.874 116.695,2.187 115.709,2.187 C115.045,2.187 114.524,2.576 114.524,3.129 C114.524,4.525 118.224,4.182 118.224,6.696 C118.224,7.948 117.271,8.999 115.633,8.999 C113.882,8.999 112.918,7.926 112.918,7.926 L113.693,6.851" id="Fill-14" sketch:type="MSShapeGroup"></path>
            <path d="M119.695,1.003 L119.695,2.231 L122.277,2.231 L122.277,8.867 L123.707,8.867 L123.707,2.231 L126.287,2.231 L126.287,1.003 L119.695,1.003" id="Fill-15" sketch:type="MSShapeGroup"></path>
            <path d="M131.437,7.693 C129.997,7.693 128.846,6.496 128.846,4.879 C128.846,3.328 129.997,2.176 131.437,2.176 C132.878,2.176 134.03,3.328 134.03,4.879 C134.03,6.496 132.878,7.693 131.437,7.693 L131.437,7.693 L131.437,7.693 L131.437,7.693 Z M131.437,0.87 C129.123,0.87 127.372,2.632 127.372,4.879 C127.372,7.194 129.123,9 131.437,9 C133.752,9 135.502,7.194 135.502,4.879 C135.502,2.632 133.752,0.87 131.437,0.87 L131.437,0.87 Z M131.437,0.87" id="Fill-16" sketch:type="MSShapeGroup"></path>
            <path d="M137.772,1.002 L140.309,1.002 C141.161,1.002 141.549,1.068 141.892,1.225 C142.679,1.578 143.178,2.331 143.178,3.373 C143.178,4.315 142.679,5.19 141.848,5.521 L141.848,5.545 C141.848,5.545 141.959,5.654 142.114,5.931 L143.732,8.867 L142.136,8.867 L140.575,5.931 L139.201,5.931 L139.201,8.867 L137.772,8.867 L137.772,1.002 L137.772,1.002 L137.772,1.002 L137.772,1.002 Z M140.486,4.69 C141.251,4.69 141.726,4.237 141.726,3.451 C141.726,2.697 141.405,2.232 140.287,2.232 L139.201,2.232 L139.201,4.69 L140.486,4.69 L140.486,4.69 Z M140.486,4.69" id="Fill-17" sketch:type="MSShapeGroup"></path>
            <path d="M146.201,1.003 L146.201,8.867 L151.086,8.867 L151.086,7.637 L147.63,7.637 L147.63,5.522 L150.277,5.522 L150.277,4.292 L147.63,4.292 L147.63,2.231 L150.909,2.231 L150.909,1.003 L146.201,1.003" id="Fill-18" sketch:type="MSShapeGroup"></path>
            <path d="M153.478,1.003 L153.478,8.867 L154.906,8.867 L154.906,5.688 L157.509,5.688 L157.509,4.458 L154.906,4.458 L154.906,2.231 L157.997,2.231 L157.997,1.003 L153.478,1.003" id="Fill-19" sketch:type="MSShapeGroup"></path>
            <path d="M160.455,1.002 L162.992,1.002 C163.844,1.002 164.232,1.068 164.577,1.225 C165.362,1.578 165.861,2.331 165.861,3.373 C165.861,4.315 165.362,5.19 164.531,5.521 L164.531,5.545 C164.531,5.545 164.642,5.654 164.797,5.931 L166.415,8.867 L164.819,8.867 L163.258,5.931 L161.884,5.931 L161.884,8.867 L160.455,8.867 L160.455,1.002 L160.455,1.002 L160.455,1.002 L160.455,1.002 Z M163.169,4.69 C163.934,4.69 164.411,4.237 164.411,3.451 C164.411,2.697 164.089,2.232 162.97,2.232 L161.884,2.232 L161.884,4.69 L163.169,4.69 L163.169,4.69 Z M163.169,4.69" id="Fill-20" sketch:type="MSShapeGroup"></path>
            <path d="M172.221,7.693 C170.781,7.693 169.629,6.496 169.629,4.879 C169.629,3.328 170.781,2.176 172.221,2.176 C173.66,2.176 174.813,3.328 174.813,4.879 C174.813,6.496 173.66,7.693 172.221,7.693 L172.221,7.693 L172.221,7.693 L172.221,7.693 Z M172.221,0.87 C169.907,0.87 168.156,2.632 168.156,4.879 C168.156,7.194 169.907,9 172.221,9 C174.536,9 176.286,7.194 176.286,4.879 C176.286,2.632 174.536,0.87 172.221,0.87 L172.221,0.87 Z M172.221,0.87" id="Fill-21" sketch:type="MSShapeGroup"></path>
            <path d="M178.667,1.002 L180.096,1.002 L183.075,5.545 C183.375,5.998 183.729,6.762 183.729,6.762 L183.751,6.762 C183.751,6.762 183.673,6.009 183.673,5.545 L183.673,1.002 L185.092,1.002 L185.092,8.867 L183.673,8.867 L180.694,4.337 C180.396,3.883 180.041,3.118 180.041,3.118 L180.019,3.118 C180.019,3.118 180.096,3.871 180.096,4.337 L180.096,8.867 L178.667,8.867 L178.667,1.002" id="Fill-22" sketch:type="MSShapeGroup"></path>
            <path d="M187.15,1.003 L187.15,2.231 L189.732,2.231 L189.732,8.867 L191.162,8.867 L191.162,2.231 L193.742,2.231 L193.742,1.003 L187.15,1.003" id="Fill-23" sketch:type="MSShapeGroup"></path>
            <path d="M195.679,6.851 C195.679,6.851 196.532,7.682 197.64,7.682 C198.239,7.682 198.782,7.372 198.782,6.729 C198.782,5.322 195.07,5.567 195.07,3.151 C195.07,1.844 196.2,0.869 197.707,0.869 C199.257,0.869 200.054,1.711 200.054,1.711 L199.434,2.874 C199.434,2.874 198.682,2.187 197.696,2.187 C197.031,2.187 196.51,2.576 196.51,3.129 C196.51,4.525 200.21,4.182 200.21,6.696 C200.21,7.948 199.257,8.999 197.619,8.999 C195.868,8.999 194.904,7.926 194.904,7.926 L195.679,6.851" id="Fill-24" sketch:type="MSShapeGroup"></path>
        </g>
        <g id="logo" sketch:type="MSLayerGroup">
            <path d="M17.917,3.046 C16.751,1.252 14.451,0.179 11.765,0.179 C7.78,0.179 3.938,2.915 3.199,6.279 C2.383,10.226 5.229,12.004 7.741,13.574 C9.58,14.724 11.168,15.716 10.819,17.33 C10.585,18.448 9.057,19.503 7.674,19.503 C6.416,19.503 5.484,19.112 4.736,18.266 C4.493,18.023 4.3,17.723 4.098,17.406 C4.034,17.306 3.97,17.206 3.903,17.105 L3.849,17.026 L0.052,19.19 L0,19.22 L0,19.279 C0,19.38 0.192,19.875 0.195,19.884 C1.277,22.391 3.508,23.661 6.828,23.661 C11.051,23.661 14.957,20.858 15.721,17.278 C16.529,13.507 13.732,11.709 11.264,10.122 C9.377,8.909 7.747,7.861 8.102,6.183 C8.327,5.197 9.686,4.334 11.012,4.334 C11.994,4.334 12.858,4.626 13.583,5.207 C13.955,5.486 14.332,5.815 14.702,6.185 L14.767,6.249 L18.129,3.607 L18.168,3.576 L18.168,3.526 C18.168,3.437 18.005,3.131 17.917,3.046" id="Fill-26" fill="#478BBE" sketch:type="MSShapeGroup"></path>
            <path d="M27.548,19.468 C26.66,19.468 25.889,19.152 25.38,18.578 C24.851,17.982 24.622,17.136 24.734,16.197 C24.916,14.845 25.218,13.353 25.381,12.551 C25.428,12.315 25.466,12.131 25.484,12.024 C25.523,11.88 25.581,11.627 25.655,11.297 C25.843,10.463 26.158,9.068 26.566,7.743 C27.116,5.82 28.836,4.478 30.748,4.478 C31.616,4.478 32.382,4.794 32.904,5.367 C33.448,5.967 33.699,6.814 33.609,7.754 C33.518,8.844 33.154,10.741 32.858,11.977 C32.636,13.043 32.206,15.011 31.826,16.198 C31.179,18.093 29.38,19.468 27.548,19.468 L27.548,19.468 L27.548,19.468 L27.548,19.468 Z M36.982,2.38 C35.73,0.991 33.868,0.226 31.741,0.226 L31.641,0.226 C29.814,0.226 27.825,1.037 26.508,2.307 C26.433,1.693 26.094,0.983 25.853,0.707 C25.813,0.628 25.672,0.495 25.478,0.316 C25.429,0.271 25.388,0.233 25.363,0.208 L25.306,0.151 L21.236,2.624 L21.236,2.682 C21.236,2.716 21.251,2.758 21.312,2.92 C21.351,3.019 21.422,3.204 21.424,3.247 L21.453,3.341 C21.867,4.398 22.118,5.035 21.663,7.223 L16.999,28.771 L16.965,28.927 L22.126,27.795 L22.191,27.78 L23.324,22.257 C24.06,23.139 25.367,23.72 26.653,23.72 L26.752,23.72 C31.033,23.72 35.26,20.615 36.584,16.497 C36.949,15.324 37.372,13.632 37.716,11.975 C38.057,10.608 38.379,8.787 38.518,7.444 C38.719,5.501 38.174,3.702 36.982,2.38 L36.982,2.38 Z M36.982,2.38" id="Fill-28" fill="#478BBE" sketch:type="MSShapeGroup"></path>
            <path d="M55.263,0.516 C55.241,0.515 55.191,0.504 55.141,0.494 C55.075,0.48 55.029,0.471 54.996,0.468 C54.32,0.212 53.552,0.179 52.957,0.179 C51.292,0.179 49.432,0.912 47.945,2.146 C47.838,1.566 47.476,0.936 47.22,0.638 C47.166,0.586 47.039,0.474 46.927,0.375 C46.84,0.298 46.762,0.23 46.741,0.209 L46.684,0.152 L42.583,2.594 L42.533,2.624 L42.533,2.682 C42.533,2.719 42.549,2.759 42.612,2.91 C42.65,3 42.721,3.169 42.724,3.211 L42.737,3.262 C43.16,4.34 43.439,5.053 42.968,7.269 L39.51,23.546 L39.483,23.671 L44.447,23.671 L46.864,12.164 C47.243,10.598 47.913,8.063 47.921,8.033 C48.181,6.84 48.75,5.907 49.608,5.262 C50.315,4.758 51.018,4.513 51.757,4.513 C52.133,4.513 52.454,4.585 52.767,4.741 L52.813,4.753 C52.841,4.754 52.923,4.81 52.98,4.867 L53.079,4.966 L55.353,0.667 L55.426,0.523 L55.263,0.516" id="Fill-29" fill="#478BBE" sketch:type="MSShapeGroup"></path>
            <path d="M62.057,10.483 C61.698,10.482 61.347,10.475 61.012,10.468 L59.677,10.461 C59.725,10.275 59.773,10.09 59.819,9.906 C60.032,9.071 60.233,8.282 60.492,7.577 C61.083,5.713 63.071,4.253 65.017,4.253 C66.12,4.253 66.922,4.552 67.401,5.142 C67.834,5.676 67.974,6.439 67.795,7.289 C67.193,10.103 64.557,10.483 62.057,10.483 L62.057,10.483 L62.057,10.483 L62.057,10.483 Z M71.707,2.483 C70.493,0.975 68.425,0.179 65.725,0.179 C61.321,0.179 57.094,3.204 55.674,7.37 C55.252,8.541 54.635,11.094 54.397,12.337 C54.119,13.674 53.932,15.011 53.735,16.496 C53.496,18.361 54.001,20.112 55.157,21.424 C56.468,22.914 58.479,23.735 60.819,23.735 C63.831,23.735 66.825,22.438 68.633,20.35 L68.684,20.291 L66.881,17.539 L66.794,17.608 C66.359,17.944 65.968,18.188 65.62,18.405 C64.403,19.218 63.221,19.565 61.67,19.565 C60.727,19.547 59.948,19.215 59.419,18.605 C58.833,17.93 58.573,16.93 58.704,15.856 C58.742,15.365 58.874,14.679 58.922,14.444 L61.432,14.49 C67.89,14.49 71.67,12.065 72.665,7.285 C73.064,5.451 72.724,3.745 71.707,2.483 L71.707,2.483 Z M71.707,2.483" id="Fill-30" fill="#478BBE" sketch:type="MSShapeGroup"></path>
            <path d="M82.202,10.483 C81.843,10.482 81.491,10.475 81.156,10.468 L79.821,10.461 C79.87,10.275 79.917,10.09 79.963,9.906 C80.177,9.071 80.378,8.282 80.636,7.577 C81.228,5.713 83.216,4.253 85.162,4.253 C86.265,4.253 87.067,4.552 87.546,5.142 C87.979,5.676 88.119,6.439 87.939,7.289 C87.337,10.103 84.702,10.483 82.202,10.483 L82.202,10.483 L82.202,10.483 L82.202,10.483 Z M91.851,2.483 C90.638,0.975 88.569,0.179 85.869,0.179 C81.466,0.179 77.239,3.204 75.819,7.37 C75.396,8.541 74.78,11.094 74.542,12.337 C74.264,13.674 74.077,15.011 73.879,16.496 C73.64,18.361 74.146,20.112 75.301,21.424 C76.613,22.914 78.623,23.735 80.964,23.735 C83.975,23.735 86.97,22.438 88.778,20.35 L88.829,20.291 L87.026,17.539 L86.938,17.608 C86.504,17.944 86.112,18.188 85.764,18.405 C84.547,19.218 83.366,19.565 81.814,19.565 C80.871,19.547 80.093,19.215 79.563,18.605 C78.978,17.93 78.718,16.93 78.849,15.856 C78.886,15.365 79.019,14.679 79.066,14.444 L81.577,14.49 C88.035,14.49 91.815,12.065 92.809,7.285 C93.209,5.451 92.869,3.745 91.851,2.483 L91.851,2.483 Z M91.851,2.483" id="Fill-31" fill="#478BBE" sketch:type="MSShapeGroup"></path>
            <path d="M111.613,3.089 C111.601,3.071 111.59,3.061 111.592,3.062 L111.592,3.032 L111.576,3.007 C110.408,1.158 108.601,0.18 106.354,0.18 C102.337,0.18 98.452,3.121 97.117,7.174 C96.687,8.466 96.125,10.63 95.89,11.895 C95.48,13.636 95.245,15.358 95.087,16.663 C94.835,18.588 95.321,20.359 96.454,21.65 C97.616,22.973 99.376,23.703 101.407,23.703 C104.06,23.703 106.664,22.401 108.566,20.113 C108.587,20.071 108.619,20.03 108.65,19.987 C108.689,19.935 108.728,19.883 108.753,19.831 L108.791,19.756 L106.769,18.187 L106.705,18.251 C106.179,18.778 105.719,19.179 105.255,19.516 C104.263,20.283 103.175,20.671 102.02,20.671 C100.899,20.671 99.913,20.264 99.245,19.525 C98.591,18.801 98.291,17.81 98.4,16.731 C98.501,15.418 98.991,12.868 99.152,12.035 C99.653,9.872 100.064,8.322 100.374,7.429 C101.158,5.078 103.587,3.165 105.788,3.165 C106.56,3.165 107.333,3.443 108.092,4.001 C108.453,4.318 108.826,4.646 109.147,5.057 L109.208,5.135 L111.685,3.35 L111.685,3.297 C111.685,3.214 111.643,3.142 111.613,3.089" id="Fill-32" fill="#7CB742" sketch:type="MSShapeGroup"></path>
            <path d="M126.174,7.293 C126.081,8.516 125.651,10.748 125.375,11.946 C125.147,13.129 124.632,15.353 124.201,16.595 C123.415,18.908 120.995,20.72 118.692,20.72 C117.589,20.72 116.596,20.295 115.896,19.523 C115.195,18.75 114.869,17.709 114.979,16.59 C115.065,15.519 115.427,13.574 115.667,12.287 L115.73,11.941 L115.811,11.603 C116.113,10.343 116.568,8.441 116.952,7.288 C117.741,5.015 120.212,3.165 122.461,3.165 C123.556,3.165 124.548,3.593 125.252,4.373 C125.957,5.153 126.285,6.189 126.174,7.293 C126.174,7.293 126.285,6.189 126.174,7.293 L126.174,7.293 L126.174,7.293 Z M127.948,2.193 C126.766,0.895 125.035,0.18 123.074,0.18 C118.988,0.18 115.025,3.142 113.65,7.221 C113.218,8.465 112.695,10.714 112.422,11.944 C112.133,13.304 111.886,14.847 111.665,16.663 C111.419,18.547 111.91,20.299 113.048,21.594 C114.241,22.954 116.029,23.703 118.081,23.703 C122.241,23.703 126.273,20.694 127.46,16.706 C127.978,14.987 128.379,13.427 128.686,11.941 C128.973,10.698 129.347,8.492 129.487,7.218 C129.671,5.27 129.124,3.485 127.948,2.193 L127.948,2.193 Z M127.948,2.193" id="Fill-33" fill="#7CB742" sketch:type="MSShapeGroup"></path>
            <path d="M158.308,1.855 C157.333,0.759 155.936,0.181 154.272,0.181 L154.177,0.181 C152.159,0.225 149.512,1.379 148.243,3.506 C147.289,1.299 145.668,0.179 143.423,0.179 C143.378,0.179 143.331,0.18 143.284,0.181 C141.519,0.225 139.868,1.102 138.243,2.86 C138.16,1.814 137.596,0.831 137.408,0.641 C137.406,0.64 137.223,0.456 137.134,0.322 L137.082,0.243 L134.279,1.822 L134.552,2.475 L134.591,2.587 C134.955,3.631 135.243,4.454 134.74,6.835 L131.19,23.537 L131.163,23.661 L134.541,23.661 L136.957,12.208 C137.383,10.357 138.099,7.439 138.107,7.409 C138.726,4.745 140.404,3.218 142.71,3.218 C143.544,3.218 144.204,3.481 144.668,4 C145.31,4.717 145.561,5.901 145.391,7.428 C145.343,8.363 144.929,10.222 144.682,11.263 L144.678,11.277 C144.676,11.285 144.675,11.291 144.674,11.298 L144.675,11.298 C144.634,11.506 144.301,13.103 142.082,23.537 L142.056,23.661 L145.433,23.661 L145.45,23.58 C147.72,12.996 148.123,11.117 148.172,10.756 L148.188,10.758 L148.173,10.754 C148.173,10.752 148.173,10.75 148.174,10.748 L148.19,10.751 L149.003,7.409 C149.621,4.745 151.299,3.218 153.605,3.218 C154.44,3.218 155.097,3.481 155.562,4 C156.204,4.717 156.455,5.901 156.285,7.428 C156.239,8.306 155.875,9.998 155.576,11.263 L155.574,11.278 C155.571,11.285 155.57,11.292 155.568,11.298 L155.57,11.298 C155.528,11.506 155.195,13.104 152.976,23.537 L152.949,23.661 L156.326,23.661 L158.839,11.868 C158.902,11.56 158.98,11.192 159.063,10.794 C159.301,9.665 159.597,8.258 159.705,7.398 C159.969,5.131 159.472,3.162 158.308,1.855" id="Fill-34" fill="#7CB742" sketch:type="MSShapeGroup"></path>
            <path d="M188.672,1.856 C187.696,0.76 186.301,0.181 184.636,0.181 L184.54,0.181 C182.523,0.225 179.876,1.38 178.607,3.506 C177.651,1.299 176.031,0.179 173.787,0.179 C173.741,0.179 173.694,0.18 173.647,0.181 C171.88,0.225 170.23,1.102 168.608,2.86 C168.525,1.815 167.96,0.831 167.771,0.641 C167.77,0.639 167.586,0.456 167.496,0.322 L167.443,0.243 L164.642,1.822 L164.914,2.475 L164.954,2.589 C165.319,3.632 165.607,4.456 165.104,6.835 L161.553,23.537 L161.526,23.661 L164.903,23.661 L167.321,12.207 C167.747,10.357 168.463,7.439 168.471,7.409 C169.091,4.745 170.767,3.218 173.073,3.218 C173.908,3.218 174.567,3.481 175.032,4 C175.673,4.717 175.923,5.9 175.755,7.428 C175.706,8.362 175.29,10.228 175.046,11.26 C175.044,11.269 175.041,11.281 175.037,11.298 L175.033,11.313 L175.036,11.316 C174.981,11.587 174.613,13.35 172.445,23.537 L172.418,23.661 L175.798,23.661 L175.815,23.58 C178.087,12.986 178.489,11.114 178.537,10.754 L178.553,10.757 L178.537,10.752 C178.538,10.751 178.538,10.75 178.538,10.748 L178.554,10.751 L179.366,7.409 C179.984,4.745 181.661,3.218 183.967,3.218 C184.802,3.218 185.46,3.481 185.925,4 C186.568,4.717 186.818,5.901 186.649,7.428 C186.6,8.409 186.135,10.436 185.938,11.262 L185.936,11.277 C185.933,11.285 185.932,11.291 185.93,11.298 L185.928,11.31 L185.929,11.313 C185.877,11.572 185.515,13.308 183.339,23.537 L183.313,23.661 L186.688,23.661 L189.202,11.868 C189.264,11.562 189.342,11.196 189.425,10.803 C189.663,9.67 189.959,8.26 190.067,7.398 C190.333,5.132 189.837,3.164 188.672,1.856" id="Fill-35" fill="#7CB742" sketch:type="MSShapeGroup"></path>
            <path d="M203.182,3.166 C204.562,3.166 205.623,3.579 206.251,4.361 C206.808,5.054 206.987,6.007 206.757,7.045 C206.026,10.547 202.964,11.03 199.765,11.03 C199.458,11.03 199.158,11.026 198.869,11.022 C198.6,11.019 198.342,11.015 198.095,11.015 L196.902,11.015 C197.178,9.778 197.544,8.148 197.816,7.287 C198.614,4.938 200.922,3.166 203.182,3.166 C203.182,3.166 200.922,3.166 203.182,3.166 L203.182,3.166 L203.182,3.166 Z M209.208,2.3 C208.082,0.914 206.21,0.18 203.794,0.18 C199.777,0.18 195.893,3.122 194.558,7.176 C194.147,8.408 193.479,11.006 193.235,12.32 C192.914,13.749 192.725,15.177 192.542,16.557 L192.528,16.664 C192.297,18.601 192.803,20.38 193.95,21.673 C195.112,22.982 196.852,23.703 198.848,23.703 C202.128,23.703 205.147,22.039 207.128,19.137 L207.189,19.046 L205.047,17.769 L204.991,17.833 C204.609,18.261 204.237,18.632 203.819,19.001 C202.613,20.077 200.982,20.718 199.458,20.718 C198.41,20.718 197.466,20.315 196.802,19.581 C196.098,18.802 195.774,17.741 195.888,16.593 C195.948,16.03 196.043,15.475 196.143,14.887 C196.197,14.579 196.25,14.268 196.299,13.952 L197.718,13.952 C203.139,13.952 208.857,13.131 210.16,7.04 C210.544,5.213 210.206,3.53 209.208,2.3 L209.208,2.3 Z M209.208,2.3" id="Fill-36" fill="#7CB742" sketch:type="MSShapeGroup"></path>
            <path d="M226.263,0.426 C225.703,0.254 225.089,0.18 224.205,0.18 C222.258,0.227 220.296,1.042 218.655,2.479 C218.53,1.68 217.966,0.826 217.782,0.643 C217.781,0.641 217.596,0.456 217.505,0.322 L217.452,0.245 L214.723,1.732 L214.644,1.776 L214.915,2.478 C214.949,2.599 214.985,2.715 215.02,2.83 C215.318,3.8 215.575,4.639 215.106,6.856 L211.543,23.611 L211.516,23.735 L214.904,23.735 L217.33,12.243 C217.709,10.485 218.426,7.798 218.434,7.768 C218.805,6.234 219.496,5.12 220.612,4.263 C221.418,3.648 222.345,3.323 223.295,3.323 C223.87,3.323 224.284,3.396 224.597,3.553 L224.974,3.741 L226.658,0.67 L226.721,0.557 L226.263,0.426" id="Fill-37" fill="#7CB742" sketch:type="MSShapeGroup"></path>
            <path d="M241.351,3.089 C241.343,3.074 241.335,3.061 241.335,3.061 L241.331,3.032 L241.315,3.007 C240.149,1.158 238.344,0.18 236.094,0.18 C232.079,0.18 228.194,3.121 226.857,7.174 C226.426,8.478 225.864,10.642 225.63,11.895 C225.22,13.641 224.986,15.361 224.828,16.663 C224.576,18.588 225.062,20.359 226.195,21.65 C227.357,22.973 229.116,23.703 231.149,23.703 C233.802,23.703 236.406,22.401 238.306,20.113 C238.326,20.071 238.36,20.03 238.391,19.987 C238.431,19.935 238.468,19.883 238.495,19.831 L238.533,19.756 L236.511,18.187 L236.447,18.251 C235.923,18.774 235.464,19.176 234.995,19.516 C234.018,20.272 232.9,20.671 231.762,20.671 C230.64,20.671 229.654,20.264 228.986,19.525 C228.332,18.801 228.032,17.809 228.141,16.731 C228.242,15.423 228.733,12.87 228.894,12.035 C229.395,9.872 229.806,8.323 230.115,7.429 C230.898,5.078 233.327,3.165 235.529,3.165 C236.301,3.165 237.073,3.443 237.818,3.988 L237.843,4.01 C238.201,4.324 238.57,4.65 238.887,5.057 L238.949,5.135 L241.426,3.35 L241.426,3.297 C241.426,3.214 241.383,3.142 241.351,3.089" id="Fill-38" fill="#7CB742" sketch:type="MSShapeGroup"></path>
            <path d="M252.267,3.166 C253.648,3.166 254.708,3.579 255.336,4.361 C255.893,5.054 256.072,6.007 255.842,7.045 C255.111,10.547 252.049,11.03 248.85,11.03 C248.544,11.03 248.244,11.026 247.955,11.022 C247.686,11.019 247.427,11.015 247.181,11.015 L245.988,11.015 C246.264,9.778 246.629,8.148 246.901,7.287 C247.699,4.938 250.007,3.166 252.267,3.166 C252.267,3.166 250.007,3.166 252.267,3.166 L252.267,3.166 L252.267,3.166 Z M258.294,2.3 C257.168,0.914 255.296,0.18 252.879,0.18 C248.862,0.18 244.978,3.122 243.643,7.176 C243.232,8.408 242.564,11.006 242.321,12.32 C241.999,13.749 241.811,15.177 241.627,16.557 L241.614,16.664 C241.382,18.601 241.888,20.38 243.036,21.673 C244.198,22.982 245.937,23.703 247.933,23.703 C251.214,23.703 254.233,22.039 256.213,19.137 L256.275,19.046 L254.132,17.769 L254.076,17.833 C253.695,18.261 253.322,18.632 252.905,19.001 C251.698,20.077 250.067,20.718 248.544,20.718 C247.495,20.718 246.552,20.315 245.887,19.581 C245.183,18.802 244.859,17.741 244.973,16.593 C245.033,16.03 245.128,15.475 245.229,14.887 C245.282,14.579 245.336,14.268 245.384,13.952 L246.803,13.952 C252.224,13.952 257.943,13.131 259.246,7.04 C259.63,5.213 259.291,3.53 258.294,2.3 L258.294,2.3 Z M258.294,2.3" id="Fill-39" fill="#7CB742" sketch:type="MSShapeGroup"></path>
        </g>
        <text id="TM" fill="#7CB742" sketch:type="MSTextLayer" font-family="Open Sans" font-size="8" font-style="italic" font-weight="bold">
            <tspan x="261" y="6">TM</tspan>
        </text>
        <text id="TM" fill="#FFFFFF" sketch:type="MSTextLayer" font-family="Open Sans" font-size="5" font-weight="bold">
            <tspan x="298" y="35">TM</tspan>
        </text>
    </g>
</svg>